<?xml version="1.0" encoding="UTF-8"?><svg id="Layer_1" xmlns="http://www.w3.org/2000/svg" viewBox="0 0 48 40"><path d="m24,27.78c-5.78,0-11.23-1.24-15.35-3.5-2.08-1.14-3.73-2.48-4.89-4-1.28-1.66-1.93-3.45-1.93-5.31s.65-3.65,1.93-5.31c1.17-1.51,2.81-2.86,4.89-4,4.12-2.26,9.58-3.5,15.35-3.5s11.23,1.24,15.35,3.5c2.08,1.14,3.73,2.48,4.89,4,1.28,1.66,1.93,3.45,1.93,5.31s-.65,3.65-1.93,5.31c-1.17,1.51-2.81,2.86-4.89,4-4.12,2.26-9.58,3.5-15.35,3.5" style="fill:#fff;"/><path d="m11.04,12.99v.99h1.53s0,.95-.64.95h-.88v1.92h-1.4v-3.87c0-.44.39-.9.92-.94h2.78s.09.95-.62.95h-1.68Zm6.14,1.99c0,1.16-.9,1.94-2.24,1.94s-2.24-.78-2.24-1.94.9-1.94,2.24-1.94,2.24.78,2.24,1.94m-2.24-1.01c-.52,0-.83.38-.83,1.01s.31.99.83.99.83-.37.83-.99-.31-1.01-.83-1.01m13.88,1.13v.26h-2.63c.08.44.42.65,1.08.65.28,0,.71-.05,1.15-.28l.04-.02v.96h-.02c-.41.16-.88.24-1.41.24-1.34,0-2.24-.78-2.24-1.95s.81-1.93,2.06-1.93,1.96.75,1.96,2.07m-1.94-1.22c-.4,0-.66.27-.7.71h1.4c0-.27-.11-.71-.7-.71m12.2,2.95h-1.27v-.26s-.03-.28-.03-.28c-.3.43-.67.63-1.2.63-.67,0-1.46-.31-1.46-1.18,0-1.05,1.09-1.27,2-1.27.18,0,.41.02.58.04-.02-.39-.29-.57-.84-.57-.67,0-1.24.22-1.24.22l-.02-.92s.76-.2,1.55-.19c1.18.01,1.84.56,1.84,1.54v1.36c0,.35.03.61.08.86v.03Zm-1.37-1.62h-.12s-.41-.03-.41-.03c-.29,0-.77.06-.77.46,0,.22.21.38.51.38.48,0,.77-.41.79-.81m-6.13-2.12c-.51,0-.86.17-1.11.64,0-.56-.49-.63-.66-.63h-.6v3.72h1.37v-1.57c0-.71.35-1.02.95-1.07l.46-.03v-1.06s-.41-.01-.41-.01Zm3.18,0c-.51,0-.86.17-1.11.64,0-.56-.49-.63-.66-.63h-.6v3.72h1.37v-1.57c0-.71.35-1.02.95-1.07l.46-.03v-1.06s-.41-.01-.41-.01Zm-14.65-.05c-.63,0-1.12.25-1.38.71,0-.56-.49-.62-.65-.62h-.6v3.71h1.37v-1.57c0-.76.25-1.12.79-1.12.39,0,.58.29.58.89v1.8h1.37v-.29h0v-2.01c0-.72-.39-1.48-1.48-1.48m4.51,3.79l-.04-.83-.1.02c-.11.02-.22.04-.33.04-.37,0-.5-.17-.5-.63v-1.29h.93v-.92h-.93v-1.19h-.72c-.39,0-.63.19-.63.62v.54h-.46v.95h.43v1.42c0,.82.25,1.37,1.49,1.37.26,0,.47-.03.67-.05l.18-.03v-.03Z" style="fill:#00539b; fill-rule:evenodd;"/><path d="m29.91,4.07s-5.94-1-12.47.14c-3.61.64-7.42,1.98-10.49,4.37C-.02,14.02,5.23,19.89,5.23,19.89c-.3-3.07,1.68-8.06,7.37-11.61,3.9-2.43,9.62-4.17,17.31-4.21" style="fill:#00aeef; fill-rule:evenodd;"/><path d="m6.04,20.79c.3-.19,4.14-2.99,9.74-2.63,6.1.39,8.77,1.45,12.5,1.83,4.32.44,8.64-.33,9.48-.9.05-.04.02.01-.08.15-.9,1.24-5.85,6.65-18.08,6.65-8.36,0-13.57-5.09-13.57-5.09" style="fill:#72bf44; fill-rule:evenodd;"/><path d="m6.04,20.79c.3-.19,4.14-2.99,9.74-2.63,6.1.39,8.77,1.45,12.5,1.83,4.32.44,8.64-.33,9.48-.9.05-.04.02.01-.08.15-.9,1.24-5.85,6.65-18.08,6.65-8.36,0-13.57-5.09-13.57-5.09Z" style="fill:none; stroke:#fff; stroke-miterlimit:10; stroke-width:.13px;"/><path d="m38.93,7.14c2.55,3.07,3,6.08,2.26,8.67-1.54,5.39-7.63,9.01-9.09,9.65-.04.02,12.6-2.67,12.59-10.55,0-5.14-5.78-7.79-5.76-7.76" style="fill:#00539b; fill-rule:evenodd;"/><path d="m5.16,31.43h-1.8v3.91c0,.47.4.9.92.94.21.02.61,0,.88,0,1.69,0,2.93-.63,2.93-2.45s-1.21-2.41-2.93-2.41m.03,3.9h-.51v-2.94h.51c.96,0,1.54.5,1.54,1.47s-.55,1.47-1.54,1.47" style="fill:#fff;"/><path d="m32.57,32.65c-.47,0-.81.16-1.05.63,0-.55-.46-.61-.61-.61h-.56s0,3.62,0,3.62h1.28v-1.53c0-.69.33-.99.89-1.04.14-.01.29-.02.43-.02v-1.03s-.27-.01-.38-.01" style="fill:#fff;"/><path d="m16.4,32.65c-.47,0-.81.16-1.05.63,0-.55-.46-.61-.62-.61h-.56s0,3.62,0,3.62h1.28v-1.53c0-.69.32-.99.89-1.04.14-.01.29-.02.43-.02v-1.03s-.27-.01-.38-.01" style="fill:#fff;"/><path d="m10.76,36.29c0-.19-.03-.38-.03-.57h-.02c-.29.45-.65.65-1.17.65-.73,0-1.38-.35-1.38-1.14,0-1.1,1.23-1.24,1.91-1.24.21,0,.43.02.6.05,0-.49-.38-.63-.84-.63-.41,0-.82.08-1.18.27l-.02-.85c.46-.18.93-.26,1.48-.26.94,0,1.76.4,1.76,1.5v1.35c0,.29.01.57.07.86h-1.17Zm-.88-.75c.48,0,.79-.43.79-.86-.16,0-.35-.02-.54-.02-.43,0-.77.13-.77.48,0,.25.23.4.53.4" style="fill:#fff;"/><path d="m13.66,32.07h-1.28v-.92h1.28v.92Zm-1.28.59h1.28v3.62h-1.28v-3.62Z" style="fill:#fff;"/><path d="m17.38,36.79c.17.06.33.08.5.08.31,0,.55-.18.65-.5l-1.5-3.71h1.38l.79,2.36h.01l.76-2.36h1.28l-1.35,3.37c-.36.91-.64,1.8-1.81,1.8-.27,0-.53-.03-.79-.08l.09-.95Z" style="fill:#fff;"/><path d="m23.4,33.54h-.75v-.88h.77v-.22c0-1.08.52-1.46,1.54-1.46.28,0,.49.04.65.07l-.08.86c-.11-.03-.21-.05-.4-.05-.33,0-.45.22-.45.58v.22h.91v.88h-.91v2.75h-1.28v-2.75Z" style="fill:#fff;"/><path d="m25.66,34.48c0-1.2.93-1.9,2.15-1.9s2.15.69,2.15,1.9-.93,1.89-2.15,1.89-2.15-.7-2.15-1.89m2.98,0c0-.54-.24-1.02-.83-1.02s-.83.48-.83,1.02.24,1.02.83,1.02.83-.48.83-1.02" style="fill:#fff;"/><path d="m37.45,32.07h-1.27v-.92h1.27v.92Zm-1.27.59h1.27v3.62h-1.27v-3.62Z" style="fill:#fff;"/><path d="m38.6,33.54h-.75v-.88h.77v-.22c0-1.08.52-1.46,1.54-1.46.28,0,.49.04.65.07l-.08.86c-.11-.03-.21-.05-.4-.05-.33,0-.46.22-.46.58v.22h.91v.88h-.91v2.75h-1.28v-2.75Z" style="fill:#fff;"/><path d="m42.13,34.84c.07.5.46.7,1.09.7.35,0,.74-.08,1.13-.28v.88c-.41.16-.88.23-1.35.23-1.22,0-2.15-.7-2.15-1.9s.83-1.89,1.98-1.89c1.37,0,1.87.95,1.87,2.03v.23h-2.55Zm1.4-.71c0-.42-.2-.76-.71-.76-.46,0-.68.34-.71.76h1.42Z" style="fill:#fff;"/><path d="m35.33,31.07h-.29c-.41,0-.66.21-.66.68v4.54h1.28v-5.22h-.33Z" style="fill:#fff;"/><polygon points="38.57 11.83 38.16 11.83 38.16 11.71 39.11 11.71 39.11 11.83 38.7 11.83 38.7 13.09 38.57 13.09 38.57 11.83" style="fill:#00539b;"/><polygon points="39.3 11.71 39.52 11.71 40.02 12.93 40.53 11.71 40.72 11.71 40.72 13.09 40.59 13.09 40.59 11.85 40.58 11.85 40.08 13.09 39.96 13.09 39.44 11.85 39.44 11.85 39.44 13.09 39.3 13.09 39.3 11.71" style="fill:#00539b;"/></svg>